<svg xmlns="http://www.w3.org/2000/svg" width="48" height="48" viewBox="0 0 48 48" fill="none">
  <!-- Fondo verde redondeado -->
  <rect width="48" height="48" rx="12" fill="#84cc16"/>
  <!-- Icono Store (Lucide) en blanco -->
  <g transform="translate(10, 10)" stroke="#fff" stroke-width="2.2" stroke-linecap="round" stroke-linejoin="round" fill="none">
    <!-- Techo / toldo -->
    <path d="M3 9l3-7h16l3 7"/>
    <path d="M3 9c0 2.2 1.8 4 4 4s4-1.8 4-4"/>
    <path d="M11 9c0 2.2 1.8 4 4 4s4-1.8 4-4"/>
    <path d="M19 9c0 2.2 1.8 4 4 4s4-1.8 4-4"/>
    <!-- Cuerpo tienda -->
    <path d="M5 13v11h18V13"/>
    <!-- Puerta -->
    <path d="M11 24v-7h6v7"/>
  </g>
</svg>
